<svg id="Layer_1" data-name="Layer 1" xmlns="http://www.w3.org/2000/svg" viewBox="0 0 7.87 5.07"><title>ico-care-encourageArtboard 1</title><g id="Layer_2" data-name="Layer 2"><g id="Layer_1-2" data-name="Layer 1-2"><path d="M4,.24A2.34,2.34,0,1,0,6.34,2.59,2.34,2.34,0,0,0,4,.24ZM4,4.65A2.06,2.06,0,1,1,6.06,2.59,2.06,2.06,0,0,1,4,4.65Zm-2.88-3A.69.69,0,0,1,1,2.13a.43.43,0,0,1-.14.12v-2H.56v2a.43.43,0,0,1-.14-.12A.69.69,0,0,1,.28,1.7V.29H0V1.7a.83.83,0,0,0,.56.84V5.07H.84V2.55A.83.83,0,0,0,1.4,1.7V.29H1.12ZM7.23.21,7,0V4.93h.28V3.55A2.33,2.33,0,0,0,7.87,1.9,2.28,2.28,0,0,0,7.23.21Zm0,.49a2.29,2.29,0,0,1,.31,1.2,2.29,2.29,0,0,1-.31,1.2Z"/></g></g></svg>