<svg id="Layer_1" data-name="Layer 1" xmlns="http://www.w3.org/2000/svg" viewBox="0 0 37.1 22.59"><title>ico-care-supportArtboard 1</title><g id="Layer_2" data-name="Layer 2"><g id="Layer_1-2" data-name="Layer 1-2"><path d="M37,9.77l-4.53-6.2a.73.73,0,0,0-.58-.3H25.37V0H0V18.62H.6A4,4,0,0,0,8.52,19h4.26a4,4,0,0,0,7.9,0h5.66a4,4,0,0,0,7.9,0h2.14a.72.72,0,0,0,.72-.72h0V10.2A.72.72,0,0,0,37,9.77ZM4.57,21.15A2.53,2.53,0,0,1,2,18.66s0,0,0,0A2.32,2.32,0,0,1,2.11,18a2.48,2.48,0,0,1,.32-.77h0l.1-.14V17h0l.13,0h0l0-.06.1-.11h0L3,16.65H3l.21-.15.1-.06H5.58l.12.07.17.12.07.06h0l.07.06.07.06.1.11h0l.09.11.08.1h0v.06A2.52,2.52,0,0,1,7,18v.11a2.7,2.7,0,0,1,0,.47A2.53,2.53,0,0,1,4.57,21.15Zm12.16,0a2.53,2.53,0,0,1-2.53-2.53h0a2.45,2.45,0,0,1,.07-.57,2.52,2.52,0,0,1,.33-.77h0l.12-.16.06-.08h0l.06-.06h0v0l.1-.11h0l.06,0,.1-.08h.05l.2-.14.11-.07h2.23l.13.07.17.12.07.06h0l.06,0,.08.08.1.11h0l.09.11.07.09h0l.07.11a2.44,2.44,0,0,1,.32.77v.12a2.52,2.52,0,0,1-2.48,3Zm7.2-17.47a.71.71,0,0,0-.08.32V17.54H20.56l-.09-.39h-.06a4,4,0,0,0-.26-.53h0l-.08-.12-.14-.2h0l-.21-.3-.09-.09-.14-.15-.07-.06h0l-.14-.12h0l-.12-.08-.28-.19h0l-.1-.06-.16-.09L18.33,15l-.16-.06L18,14.86h-.16l-.21-.05H15.47l-.18.07-.14.06L15,15l-.16.08-.15.09-.32.22-.15.12-.12.1L14,15.7h0l-.13.14h0l-.19.23h0v.06l-.13.18h0a4,4,0,0,0-.47,1.07H8.4L8.31,17H8.25A4.11,4.11,0,0,0,8,16.57H8V16.5l-.14-.2h0l-.06-.06h0L7.55,16h0l-.08-.09-.14-.15-.08-.07h0l-.12-.11h0L7,15.49l-.27-.19h0l-.1-.06-.17-.09L6.16,15,6,14.93l-.17-.07-.17-.05-.22-.05H3.67l-.22.05H3.31l-.18.07L3,15l-.18.09-.16.08-.15.09-.32.22a1,1,0,0,0-.17.14l-.1.08-.07.06h0l-.13.14-.09.1h0l-.16.19V1.44H23.93Zm4.66,1h2.88L35,9.51H28.59Zm1.7,16.43a2.54,2.54,0,0,1-2.53-2.53,2.61,2.61,0,0,1,.4-1.35h0l.11-.15h0l.08-.1h0l.1-.11h0l.1-.08h0l.21-.14.1-.06h2.28l.13.07.18.12.07.06h0l.07.07.07.06.1.11h0l.1.12.07.08h0l.07.11a2.56,2.56,0,0,1,.32.77v.12a2.69,2.69,0,0,1,0,.46,2.53,2.53,0,0,1-2.13,2.41Zm5.37-3.61H34.12L34,17.15h0a4.14,4.14,0,0,0-.26-.53h0l-.08-.12-.14-.21h0l0-.07h0L33.28,16h0l-.09-.09L33,15.76l0-.06h0l-.13-.12h0l-.12-.08-.28-.2h0l-.1-.06-.16-.08L31.89,15l-.15-.06-.18-.07H31.4l-.23-.06h-.5a4,4,0,0,0-.76,0H29l-.18.07-.13.05-.19.09-.15.08-.15.09-.32.22-.16.13-.11.09-.07.06h0l-.14.15-.06.07-.18.22h0v0l-.14.2h0a4,4,0,0,0-.46,1h-1.2V4.72h1.86v5.51a.72.72,0,0,0,.72.72h7.79ZM11.57,13.33H13V9.14h4.18V7.7H13V3.51H11.57V7.7H7.38V9.14h4.18Z"/></g></g></svg>