<svg id="Layer_1" data-name="Layer 1" xmlns="http://www.w3.org/2000/svg" viewBox="0 0 5.88 5.71"><title>ico-care-blackArtboard 1</title><g id="Layer_2" data-name="Layer 2"><g id="Layer_1-2" data-name="Layer 1-2"><path d="M4.25,0A2.25,2.25,0,0,0,2.92.51,1.74,1.74,0,0,0,1.75,0,1.77,1.77,0,0,0,.48.64c-1.26,1.3.26,2.87.9,3.55l.19.2,1.07,1.2h0a.3.3,0,0,0,.23.1h0a.3.3,0,0,0,.23-.14,5.43,5.43,0,0,1,1-1.15A4.46,4.46,0,0,0,5.87,1.88,1.66,1.66,0,0,0,5.48.63,1.57,1.57,0,0,0,4.25,0ZM4,4.18A5.75,5.75,0,0,0,2.88,5.41L1.8,4.18C1.35,3.67-.49,2.07.7.85A1.46,1.46,0,0,1,1.75.32,1.58,1.58,0,0,1,2.89.93,2.16,2.16,0,0,1,4.25.3a1.27,1.27,0,0,1,1,.52C6.27,2,4.68,3.61,4,4.18Z"/></g></g></svg>